HIERARCHY
ROOT Hips
{
  OFFSET 355.822 88.6557 206.848
  CHANNELS 6 Xposition Yposition Zposition Zrotation Xrotation Yrotation
  JOINT RightUpLeg
  {
    OFFSET -9.2664 -1.55826 0.04368
    CHANNELS 6 Xposition Yposition Zposition Zrotation Xrotation Yrotation
    JOINT RightLeg
    {
      OFFSET 0.00788722 -41.8912 0.0702151
      CHANNELS 6 Xposition Yposition Zposition Zrotation Xrotation Yrotation
      JOINT RightFoot
      {
        OFFSET 0.317057 -42.9389 -0.14782
        CHANNELS 6 Xposition Yposition Zposition Zrotation Xrotation Yrotation
        End Site
        {
          OFFSET 0 -7.69 17.5
        }
      }
    }
  }
  JOINT LeftUpLeg
  {
    OFFSET 9.25768 -1.58742 -0.0287322
    CHANNELS 6 Xposition Yposition Zposition Zrotation Xrotation Yrotation
    JOINT LeftLeg
    {
      OFFSET 0.0171529 -41.8736 -0.0147533
      CHANNELS 6 Xposition Yposition Zposition Zrotation Xrotation Yrotation
      JOINT LeftFoot
      {
        OFFSET 1.11986 -41.0202 -0.171423
        CHANNELS 6 Xposition Yposition Zposition Zrotation Xrotation Yrotation
        End Site
        {
          OFFSET 0 -7.69 17.5
        }
      }
    }
  }
  JOINT Spine
  {
    OFFSET -0.0140412 14.3042 0.0382179
    CHANNELS 6 Xposition Yposition Zposition Zrotation Xrotation Yrotation
    JOINT Spine1
    {
      OFFSET -0.00339557 9.71854 0.0114188
      CHANNELS 6 Xposition Yposition Zposition Zrotation Xrotation Yrotation
      JOINT Spine2
      {
        OFFSET 0.00732806 10.1205 0.0051727
        CHANNELS 6 Xposition Yposition Zposition Zrotation Xrotation Yrotation
        JOINT Spine3
        {
          OFFSET 0.0120182 9.72552 0.0118288
          CHANNELS 6 Xposition Yposition Zposition Zrotation Xrotation Yrotation
          JOINT Neck
          {
            OFFSET -0.0123442 10.3845 0.0106726
            CHANNELS 6 Xposition Yposition Zposition Zrotation Xrotation Yrotation
            JOINT Head
            {
              OFFSET 0.00277037 9.46904 0.0122453
              CHANNELS 6 Xposition Yposition Zposition Zrotation Xrotation Yrotation
              End Site
              {
                OFFSET 0 15.95 0
              }
            }
          }
          JOINT RightShoulder
          {
            OFFSET -3.19591 6.91307 0.0096498
            CHANNELS 6 Xposition Yposition Zposition Zrotation Xrotation Yrotation
            JOINT RightArm
            {
              OFFSET -12.7948 -0.0218906 0.00466241
              CHANNELS 6 Xposition Yposition Zposition Zrotation Xrotation Yrotation
              JOINT RightForeArm
              {
                OFFSET -26.5126 -0.0292843 0.0311862
                CHANNELS 6 Xposition Yposition Zposition Zrotation Xrotation Yrotation
                JOINT RightHand
                {
                  OFFSET -25.9932 -0.0473756 0.0119724
                  CHANNELS 6 Xposition Yposition Zposition Zrotation Xrotation Yrotation
                  JOINT RightHandThumb1
                  {
                    OFFSET -2.48905 0.190105 3.12053
                    CHANNELS 6 Xposition Yposition Zposition Zrotation Xrotation Yrotation
                    JOINT RightHandThumb2
                    {
                      OFFSET -3.68274 0 0
                      CHANNELS 6 Xposition Yposition Zposition Zrotation Xrotation Yrotation
                      JOINT RightHandThumb3
                      {
                        OFFSET -2.55832 0 0
                        CHANNELS 6 Xposition Yposition Zposition Zrotation Xrotation Yrotation
                        End Site
                        {
                          OFFSET -2.194 0 0
                        }
                      }
                    }
                  }
                  JOINT RightInHandIndex
                  {
                    OFFSET -3.22368 0.508421 1.97842
                    CHANNELS 6 Xposition Yposition Zposition Zrotation Xrotation Yrotation
                    JOINT RightHandIndex1
                    {
                      OFFSET -5.21684 -0.091368 0.999158
                      CHANNELS 6 Xposition Yposition Zposition Zrotation Xrotation Yrotation
                      JOINT RightHandIndex2
                      {
                        OFFSET -3.61937 0 0
                        CHANNELS 6 Xposition Yposition Zposition Zrotation Xrotation Yrotation
                        JOINT RightHandIndex3
                        {
                          OFFSET -2.0521 0 0
                          CHANNELS 6 Xposition Yposition Zposition Zrotation Xrotation Yrotation
                          End Site
                          {
                            OFFSET -1.805 0 0
                          }
                        }
                      }
                    }
                  }
                  JOINT RightInHandMiddle
                  {
                    OFFSET -3.38211 0.517263 0.756737
                    CHANNELS 6 Xposition Yposition Zposition Zrotation Xrotation Yrotation
                    JOINT RightHandMiddle1
                    {
                      OFFSET -5.17411 -0.084 0.313895
                      CHANNELS 6 Xposition Yposition Zposition Zrotation Xrotation Yrotation
                      JOINT RightHandMiddle2
                      {
                        OFFSET -3.94947 0 0
                        CHANNELS 6 Xposition Yposition Zposition Zrotation Xrotation Yrotation
                        JOINT RightHandMiddle3
                        {
                          OFFSET -2.47579 0 0
                          CHANNELS 6 Xposition Yposition Zposition Zrotation Xrotation Yrotation
                          End Site
                          {
                            OFFSET -1.975 0 0
                          }
                        }
                      }
                    }
                  }
                  JOINT RightInHandRing
                  {
                    OFFSET -3.36516 0.537895 -0.128947
                    CHANNELS 6 Xposition Yposition Zposition Zrotation Xrotation Yrotation
                    JOINT RightHandRing1
                    {
                      OFFSET -4.63474 -0.022105 -0.478947
                      CHANNELS 6 Xposition Yposition Zposition Zrotation Xrotation Yrotation
                      JOINT RightHandRing2
                      {
                        OFFSET -3.44238 0 0
                        CHANNELS 6 Xposition Yposition Zposition Zrotation Xrotation Yrotation
                        JOINT RightHandRing3
                        {
                          OFFSET -2.3881 0 0
                          CHANNELS 6 Xposition Yposition Zposition Zrotation Xrotation Yrotation
                          End Site
                          {
                            OFFSET -1.857 0 0
                          }
                        }
                      }
                    }
                  }
                  JOINT RightInHandPinky
                  {
                    OFFSET -3.16105 0.469368 -1.20179
                    CHANNELS 6 Xposition Yposition Zposition Zrotation Xrotation Yrotation
                    JOINT RightHandPinky1
                    {
                      OFFSET -4.14105 -0.022105 -1.09053
                      CHANNELS 6 Xposition Yposition Zposition Zrotation Xrotation Yrotation
                      JOINT RightHandPinky2
                      {
                        OFFSET -2.75653 0 0
                        CHANNELS 6 Xposition Yposition Zposition Zrotation Xrotation Yrotation
                        JOINT RightHandPinky3
                        {
                          OFFSET -1.74189 0 0
                          CHANNELS 6 Xposition Yposition Zposition Zrotation Xrotation Yrotation
                          End Site
                          {
                            OFFSET -1.645 0 0
                          }
                        }
                      }
                    }
                  }
                }
              }
            }
          }
          JOINT LeftShoulder
          {
            OFFSET 3.21765 6.92976 -0.013647
            CHANNELS 6 Xposition Yposition Zposition Zrotation Xrotation Yrotation
            JOINT LeftArm
            {
              OFFSET 12.808 -0.00728113 -0.0379567
              CHANNELS 6 Xposition Yposition Zposition Zrotation Xrotation Yrotation
              JOINT LeftForeArm
              {
                OFFSET 26.5023 -0.0205295 -0.0142589
                CHANNELS 6 Xposition Yposition Zposition Zrotation Xrotation Yrotation
                JOINT LeftHand
                {
                  OFFSET 25.9963 -0.00968247 -0.0184874
                  CHANNELS 6 Xposition Yposition Zposition Zrotation Xrotation Yrotation
                  JOINT LeftHandThumb1
                  {
                    OFFSET 2.48905 0.190105 3.12053
                    CHANNELS 6 Xposition Yposition Zposition Zrotation Xrotation Yrotation
                    JOINT LeftHandThumb2
                    {
                      OFFSET 3.68274 0 0
                      CHANNELS 6 Xposition Yposition Zposition Zrotation Xrotation Yrotation
                      JOINT LeftHandThumb3
                      {
                        OFFSET 2.55832 0 0
                        CHANNELS 6 Xposition Yposition Zposition Zrotation Xrotation Yrotation
                        End Site
                        {
                          OFFSET 2.194 0 0
                        }
                      }
                    }
                  }
                  JOINT LeftInHandIndex
                  {
                    OFFSET 3.22368 0.508421 1.97842
                    CHANNELS 6 Xposition Yposition Zposition Zrotation Xrotation Yrotation
                    JOINT LeftHandIndex1
                    {
                      OFFSET 5.21684 -0.091368 0.999158
                      CHANNELS 6 Xposition Yposition Zposition Zrotation Xrotation Yrotation
                      JOINT LeftHandIndex2
                      {
                        OFFSET 3.61937 0 0
                        CHANNELS 6 Xposition Yposition Zposition Zrotation Xrotation Yrotation
                        JOINT LeftHandIndex3
                        {
                          OFFSET 2.0521 0 0
                          CHANNELS 6 Xposition Yposition Zposition Zrotation Xrotation Yrotation
                          End Site
                          {
                            OFFSET 1.805 0 0
                          }
                        }
                      }
                    }
                  }
                  JOINT LeftInHandMiddle
                  {
                    OFFSET 3.38211 0.517263 0.756737
                    CHANNELS 6 Xposition Yposition Zposition Zrotation Xrotation Yrotation
                    JOINT LeftHandMiddle1
                    {
                      OFFSET 5.17411 -0.084 0.313895
                      CHANNELS 6 Xposition Yposition Zposition Zrotation Xrotation Yrotation
                      JOINT LeftHandMiddle2
                      {
                        OFFSET 3.94947 0 0
                        CHANNELS 6 Xposition Yposition Zposition Zrotation Xrotation Yrotation
                        JOINT LeftHandMiddle3
                        {
                          OFFSET 2.47579 0 0
                          CHANNELS 6 Xposition Yposition Zposition Zrotation Xrotation Yrotation
                          End Site
                          {
                            OFFSET 1.975 0 0
                          }
                        }
                      }
                    }
                  }
                  JOINT LeftInHandRing
                  {
                    OFFSET 3.36516 0.537895 -0.128947
                    CHANNELS 6 Xposition Yposition Zposition Zrotation Xrotation Yrotation
                    JOINT LeftHandRing1
                    {
                      OFFSET 4.63474 -0.022105 -0.478947
                      CHANNELS 6 Xposition Yposition Zposition Zrotation Xrotation Yrotation
                      JOINT LeftHandRing2
                      {
                        OFFSET 3.44238 0 0
                        CHANNELS 6 Xposition Yposition Zposition Zrotation Xrotation Yrotation
                        JOINT LeftHandRing3
                        {
                          OFFSET 2.3881 0 0
                          CHANNELS 6 Xposition Yposition Zposition Zrotation Xrotation Yrotation
                          End Site
                          {
                            OFFSET 1.857 0 0
                          }
                        }
                      }
                    }
                  }
                  JOINT LeftInHandPinky
                  {
                    OFFSET 3.16105 0.469368 -1.20179
                    CHANNELS 6 Xposition Yposition Zposition Zrotation Xrotation Yrotation
                    JOINT LeftHandPinky1
                    {
                      OFFSET 4.14105 -0.022105 -1.09053
                      CHANNELS 6 Xposition Yposition Zposition Zrotation Xrotation Yrotation
                      JOINT LeftHandPinky2
                      {
                        OFFSET 2.75653 0 0
                        CHANNELS 6 Xposition Yposition Zposition Zrotation Xrotation Yrotation
                        JOINT LeftHandPinky3
                        {
                          OFFSET 1.74189 0 0
                          CHANNELS 6 Xposition Yposition Zposition Zrotation Xrotation Yrotation
                          End Site
                          {
                            OFFSET 1.645 0 0
                          }
                        }
                      }
                    }
                  }
                }
              }
            }
          }
        }
      }
    }
  }
}
MOTION
Frames:	3
Frame Time:	0.00833333
351.737 87.7284 212.58 23.8684 6.32027 -111.561 -9.29475 -1.47243 0.125949 25.5448 -46.1901 23.3839 0.00943515 -41.8851 0.0292947 -9.38781 13.5096 -2.55522 1.08874 -43.7968 0.14197 11.1585 13.3196 34.6534 9.24169 -1.61902 6.51152e-05 34.1802 -26.3643 20.4712 0.0653069 -41.9339 0.148084 -19.3536 40.3283 26.4991 0.934551 -41.3553 -2.88193 -6.83003 -24.3912 -6.21925 0.114396 14.2959 0.0570494 -5.98554 2.08105 -14.6396 0.0371509 9.71115 0.0100235 -1.5493 0.108853 -3.73274 0.0290317 10.1198 -0.135795 -2.55649 -0.00266272 -6.06837 0.00225439 9.72543 -0.00395612 -0.68736 -0.470402 2.76303 0.025967 10.3775 0.210923 -1.06006 -6.07208 43.8177 -0.190104 9.43157 0.103108 -11.034 7.45587 26.51 -3.20358 6.92211 0.0654266 8.90388 3.8934 -1.74074 -12.7897 -0.00583185 0.112855 47.9499 -51.7113 3.087 -26.4529 -0.0387908 -0.0208763 51.2865 12.5858 118.428 -25.9865 -0.0978817 -0.0223894 5.42413 -18.7735 10.4406 -2.48905 0.190105 3.12053 28.184 10.7294 19.1592 -3.68274 0 0 -2.17563e-15 -3.18055e-15 -10 -2.55832 0 0 8.07405e-16 0 -10 -3.22368 0.508421 1.97842 2.38542e-15 0 -4.77083e-15 -5.21684 -0.091368 0.999158 19.9818 0.871897 2.3964 -3.61937 0 0 24 3.18055e-15 -3.18055e-15 -2.0521 0 0 20 9.54166e-15 1.59028e-14 -3.38211 0.517263 0.756737 2.38542e-15 0 -4.77083e-15 -5.17411 -0.084 0.313895 20 0 3.18055e-15 -3.94947 -2.84217e-14 0 24 6.36111e-15 -0 -2.47579 1.42109e-14 -5.68434e-14 20 -3.18055e-15 3.18055e-15 -3.36516 0.537895 -0.128947 2.38542e-15 0 -4.77083e-15 -4.63474 -0.022105 -0.478947 19.9748 -1.02565 -2.81938 -3.44238 2.84217e-14 0 24 3.18055e-15 -1.59028e-15 -2.3881 0 0 20 3.18055e-15 3.18055e-15 -3.16105 0.469368 -1.20179 2.38542e-15 0 -4.77083e-15 -4.14105 -0.022105 -1.09053 19.7815 -3.00948 -8.30515 -2.75653 -5.68434e-14 0 24 0 7.95139e-15 -1.74189 2.84217e-14 0 20 -3.18055e-15 -0 3.23257 6.93578 -0.0395087 4.64986 -19.1651 -49.1358 12.8403 -0.023249 -0.0407273 -9.22726 35.3179 -114.855 26.5219 -0.0339532 -0.0961979 34.1216 -5.07074 -26.9475 25.9571 -0.037308 -0.217043 -32.514 -14.8731 -7.89125 2.48905 0.190105 3.12053 -28.184 10.7294 -19.1592 3.68274 -2.84217e-14 0 1.77193e-15 -3.18055e-15 10 2.55832 0 -5.68434e-14 -1.61481e-15 0 10 3.22368 0.508421 1.97842 -7.95139e-16 -4.77083e-15 3.18055e-15 5.21684 -0.091368 0.999158 -19.9818 0.871897 -2.3964 3.61937 -2.84217e-14 -5.68434e-14 -24 -3.18055e-15 1.59028e-15 2.0521 -2.84217e-14 0 -20 0 1.98785e-16 3.38211 0.517263 0.756737 -7.95139e-16 -4.77083e-15 3.18055e-15 5.17411 -0.084 0.313895 -20 0 -0 3.94947 0 5.68434e-14 -24 -6.36111e-15 1.59028e-15 2.47579 0 0 -20 -6.36111e-15 3.68373e-15 3.36516 0.537895 -0.128947 -7.95139e-16 -4.77083e-15 3.18055e-15 4.63474 -0.022105 -0.478947 -19.9748 -1.02565 2.81938 3.44238 -1.42109e-14 0 -24 3.18055e-15 -1.59028e-15 2.3881 -2.84217e-14 0 -20 -3.18055e-15 -8.74653e-15 3.16105 0.469368 -1.20179 -7.95139e-16 -4.77083e-15 3.18055e-15 4.14105 -0.022105 -1.09053 -19.7815 -3.00948 8.30515 2.75653 -1.42109e-14 0 -24 9.54166e-15 -3.18055e-15 1.74189 0 0 -20 -3.18055e-15 7.95139e-16 
351.742 87.7191 212.531 23.8761 6.51123 -111.636 -9.29362 -1.51019 0.104176 25.7984 -46.1154 23.4009 0.013582 -41.8849 0.0288467 -9.46112 13.4968 -2.52753 1.14348 -43.7957 0.137766 11.1952 13.351 34.6958 9.24409 -1.57994 0.019454 34.372 -26.2627 20.4279 0.063923 -41.9331 0.148373 -19.4253 40.3093 26.567 0.990046 -41.3551 -2.87238 -6.79892 -24.4184 -6.19502 0.048448 14.296 0.076484 -5.98103 2.03598 -14.8769 0.016813 9.71115 0.0098515 -1.548 0.0928681 -3.79171 0.0307523 10.1198 -0.126496 -2.55423 -0.0305283 -6.15945 0.00225779 9.72543 -0.0041467 -0.678673 -0.464903 2.77014 0.0256813 10.3776 0.210332 -1.02294 -5.99125 43.9723 -0.1896 9.43169 0.096422 -10.9158 7.44782 26.6231 -3.20358 6.92202 0.0643947 9.04679 4.05959 -1.91987 -12.7894 -0.005622 0.103747 47.8789 -51.9453 2.87329 -26.4523 -0.031175 -0.019761 50.7445 12.7774 119.029 -25.9867 -0.090455 -0.0229184 5.37609 -18.6161 10.4554 -2.48905 0.190105 3.12053 28.184 10.7294 19.1592 -3.68274 0 0 1.08105e-14 6.36111e-15 -10 -2.55832 0 0 -2.91539e-15 6.36111e-15 -10 -3.22368 0.508421 1.97842 -7.95139e-16 9.54166e-15 1.59028e-15 -5.21684 -0.091368 0.999158 19.9818 0.871897 2.3964 -3.61937 0 0 24 -3.18055e-15 -3.18055e-15 -2.0521 1.42109e-14 0 20 0 6.36111e-15 -3.38211 0.517263 0.756737 -7.95139e-16 9.54166e-15 1.59028e-15 -5.17411 -0.084 0.313895 20 6.36111e-15 -7.95139e-16 -3.94947 2.84217e-14 -5.68434e-14 24 0 -6.36111e-15 -2.47579 -1.42109e-14 0 20 0 9.54166e-15 -3.36516 0.537895 -0.128947 -7.95139e-16 9.54166e-15 1.59028e-15 -4.63474 -0.022105 -0.478947 19.9748 -1.02565 -2.81938 -3.44238 0 1.13687e-13 24 -3.18055e-15 4.77083e-15 -2.3881 -1.42109e-14 0 20 3.18055e-15 -0 -3.16105 0.469368 -1.20179 -7.95139e-16 9.54166e-15 1.59028e-15 -4.14105 -0.022105 -1.09053 19.7815 -3.00948 -8.30515 -2.75653 2.84217e-14 0 24 3.18055e-15 9.54166e-15 -1.74189 1.42109e-14 0 20 0 9.54166e-15 3.23148 6.92256 -0.0397079 4.68452 -19.0294 -49.0526 12.8393 -0.0241657 -0.0402598 -8.92846 35.0962 -115.098 26.5188 -0.0353404 -0.087689 34.2271 -5.12862 -27.3345 25.9532 -0.0378317 -0.20212 -32.7046 -14.7932 -8.08228 2.48905 0.190105 3.12053 -28.184 10.7294 -19.1592 3.68274 -2.84217e-14 0 2.01851e-15 0 10 2.55832 0 0 1.08781e-15 -1.59028e-15 10 3.22368 0.508421 1.97842 -7.95139e-16 4.77083e-15 -0 5.21684 -0.091368 0.999158 -19.9818 0.871897 -2.3964 3.61937 -2.84217e-14 0 -24 3.18055e-15 -0 2.0521 2.84217e-14 0 -20 3.18055e-15 -1.78906e-15 3.38211 0.517263 0.756737 -7.95139e-16 4.77083e-15 -0 5.17411 -0.084 0.313895 -20 3.18055e-15 -0 3.94947 1.42109e-14 5.68434e-14 -24 -6.36111e-15 -4.77083e-15 2.47579 2.84217e-14 0 -20 -3.18055e-15 -4.69629e-15 3.36516 0.537895 -0.128947 -7.95139e-16 4.77083e-15 -0 4.63474 -0.022105 -0.478947 -19.9748 -1.02565 2.81938 3.44238 0 0 -24 3.18055e-15 -4.77083e-15 2.3881 -2.84217e-14 -5.68434e-14 -20 -6.36111e-15 -5.96354e-15 3.16105 0.469368 -1.20179 -7.95139e-16 4.77083e-15 -0 4.14105 -0.022105 -1.09053 -19.7815 -3.00948 8.30515 2.75653 0 0 -24 0 -3.18055e-15 1.74189 -1.42109e-14 -5.68434e-14 -20 0 -1.59028e-15 
351.756 87.7099 212.484 23.8802 6.49574 -111.78 -9.29151 -1.5118 0.0987839 25.9515 -46.0675 23.5629 0.0171038 -41.8847 0.0285532 -9.52672 13.487 -2.50508 1.19614 -43.7993 0.147618 11.2291 13.3744 34.7301 9.24704 -1.57483 0.0341867 34.4095 -26.179 20.5275 0.0585848 -41.9326 0.151362 -19.4693 40.2968 26.6189 1.06753 -41.3501 -2.86258 -6.77078 -24.4321 -6.20047 0.0527402 14.2962 0.0719895 -6.04424 1.95115 -15.1051 0.0213015 9.71115 0.00968157 -1.56272 0.0642071 -3.84758 0.0308492 10.1198 -0.128222 -2.57849 -0.0798637 -6.24464 0.00226078 9.72543 -0.00433844 -0.671803 -0.460866 2.77762 0.0239819 10.3778 0.210104 -0.985343 -5.92785 44.1614 -0.189223 9.43182 0.0928368 -10.831 7.46768 26.753 -3.20357 6.92194 0.063269 9.09548 4.15766 -2.00127 -12.7896 -0.00716289 0.0962619 47.7773 -52.1345 2.59361 -26.4518 -0.0315644 -0.0182074 50.202 12.8829 119.635 -25.987 -0.0867979 -0.0230362 5.35658 -18.4706 10.4738 -2.48905 0.190105 3.12053 28.184 10.7294 19.1592 -3.68274 -5.68434e-14 0 -1.61481e-15 0 -10 -2.55832 2.84217e-14 -5.68434e-14 -3.79044e-15 -3.18055e-15 -10 -3.22368 0.508421 1.97842 -7.15625e-15 6.36111e-15 3.97569e-15 -5.21684 -0.091368 0.999158 19.9818 0.871897 2.3964 -3.61937 0 0 24 3.18055e-15 3.18055e-15 -2.0521 1.42109e-14 5.68434e-14 20 -3.18055e-15 3.18055e-15 -3.38211 0.517263 0.756737 -7.15625e-15 6.36111e-15 3.97569e-15 -5.17411 -0.084 0.313895 20 6.36111e-15 7.15625e-15 -3.94947 0 0 24 6.36111e-15 -3.18055e-15 -2.47579 -1.42109e-14 5.68434e-14 20 -3.18055e-15 -6.36111e-15 -3.36516 0.537895 -0.128947 -7.15625e-15 6.36111e-15 3.97569e-15 -4.63474 -0.022105 -0.478947 19.9748 -1.02565 -2.81938 -3.44238 0 0 24 -6.36111e-15 1.27222e-14 -2.3881 1.42109e-14 0 20 0 -3.18055e-15 -3.16105 0.469368 -1.20179 -7.15625e-15 6.36111e-15 3.97569e-15 -4.14105 -0.022105 -1.09053 19.7815 -3.00948 -8.30515 -2.75653 0 0 24 6.36111e-15 1.59028e-15 -1.74189 0 5.68434e-14 20 0 -0 3.23045 6.92569 -0.0398277 4.66105 -18.9426 -48.914 12.8384 -0.0250645 -0.0398501 -8.64264 34.9292 -115.33 26.5161 -0.0364224 -0.079191 34.3034 -5.18783 -27.6727 25.9513 -0.0383579 -0.190147 -32.9199 -14.6763 -8.26606 2.48905 0.190105 3.12053 -28.184 10.7294 -19.1592 3.68274 -2.84217e-14 0 1.77193e-15 -3.18055e-15 10 2.55832 0 0 2.14181e-15 1.59028e-15 10 3.22368 0.508421 1.97842 -2.38542e-15 -3.18055e-15 -0 5.21684 -0.091368 0.999158 -19.9818 0.871897 -2.3964 3.61937 0 0 -24 0 4.77083e-15 2.0521 2.84217e-14 0 -20 -6.36111e-15 3.97569e-16 3.38211 0.517263 0.756737 -2.38542e-15 -3.18055e-15 -0 5.17411 -0.084 0.313895 -20 -3.18055e-15 -3.18055e-15 3.94947 1.42109e-14 0 -24 0 -1.59028e-15 2.47579 0 0 -20 -6.36111e-15 5.93869e-15 3.36516 0.537895 -0.128947 -2.38542e-15 -3.18055e-15 -0 4.63474 -0.022105 -0.478947 -19.9748 -1.02565 2.81938 3.44238 -1.42109e-14 0 -24 -6.36111e-15 6.36111e-15 2.3881 0 0 -20 0 2.18663e-15 3.16105 0.469368 -1.20179 -2.38542e-15 -3.18055e-15 -0 4.14105 -0.022105 -1.09053 -19.7815 -3.00948 8.30515 2.75653 0 0 -24 -6.36111e-15 9.54166e-15 1.74189 -1.42109e-14 0 -20 -6.36111e-15 -1.19271e-15 
